# xmcd
#
# Track frame offsets:
#	150
#	13948
#	25733
#	41475
#	59270
#	69535
#	76033
#	92713
#	105983
#	118985
#	131133
#	145045
#	159975
#	172548
#	186095
#	197818
#	209333
#	222405
#	234525
#	248408
#	262405
#
# Disc length: 3686 seconds
#
# Revision: 1
# Processed by: cddbd v1.5.2PL0 Copyright (c) Steve Scherf et al.
# Submitted via: audiograbber 1.83.01
#
DISCID=220e6415
DTITLE=псякюм юмхм - опхгмюмхе б кчабх
DYEAR=2001
DGENRE=оПХГМЮМХЕ Б КЧАБХ
TTITLE0=дхмэ дхмэ дхмэ!
TTITLE1=дебнмэйю
TTITLE2=щи, дпсц цхрюпю!
TTITLE3=йюопхгмюъ, сопълюъ
TTITLE4=лш я рнани ме оюпю
TTITLE5=юу, ъ бкчак╗м б цкюгю ндмх
TTITLE6=дбе пнгш
TTITLE7=опхгмюмхе б кчабх
TTITLE8=осярэ цхрюпю гбсвхр месярюммюъ
TTITLE9=ъ бя╗ нрдюл
TTITLE10=бевепю гюашрше
TTITLE11=рюанп мюь яохр
TTITLE12=б вюя пнйнбни
TTITLE13=ме жшцюм
TTITLE14=гхлмхи бевеп
TTITLE15=мюмщ жнйю
TTITLE16=пюйшпдъ
TTITLE17=вюпндеийю
TTITLE18=сякшьэ лемъ, унпньюъ
TTITLE19=йнкшаекэмюъ гхлни
TTITLE20=аНМСЯ
EXTD=
EXTT0=
EXTT1=
EXTT2=
EXTT3=
EXTT4=
EXTT5=
EXTT6=
EXTT7=
EXTT8=
EXTT9=
EXTT10=
EXTT11=
EXTT12=
EXTT13=
EXTT14=
EXTT15=
EXTT16=
EXTT17=
EXTT18=
EXTT19=
EXTT20=
PLAYORDER=
